# xmcd
#
# Track frame offsets: 
#        150
#        19913
#        39781
#        57090
#        75616
#        92206
#        115576
#        128596
#        139442
#        161756
#
# Disc length: 2384 seconds
#
# Revision: 0
# Processed by: cddbd v1.5.2PL0 Copyright (c) Steve Scherf et al.
# Submitted via: ExactAudioCopy v0.99pb5
#
DISCID=79094e0a
DTITLE=Sally Jaye - Amarillo
DYEAR=2006
DGENRE=Country
TTITLE0=Miss Ater
TTITLE1=750 One Dollar Bills
TTITLE2=Junkyard
TTITLE3=Fair Lady
TTITLE4=Georgia You Were Right
TTITLE5=Amarillo
TTITLE6=Sailor
TTITLE7=We All End Up Here
TTITLE8=When the Cocaine Wears Off
TTITLE9=This House
EXTD=
EXTT0=
EXTT1=
EXTT2=
EXTT3=
EXTT4=
EXTT5=
EXTT6=
EXTT7=
EXTT8=
EXTT9=
PLAYORDER=
